<?xml version="1.0" encoding="UTF-8"?>
<!-- Created with Inkscape (http://www.inkscape.org/) -->
<svg width="42.449" height="79.168" version="1.1" viewBox="0 0 42.449 79.168" xmlns="http://www.w3.org/2000/svg" xmlnsSvg="http://www.w3.org/2000/svg">
 <g transform="matrix(1.1361 0 0 1.1361 -284.56 -1584.7)" stroke-width="2.0562">
  <g stroke-linecap="round" stroke-miterlimit="21">
   <g stroke-width="1.2848">
    <path d="m281.04 1411a11.096 10.018 0 0 0-5.2946-8.9305 11.096 10.018 0 0 0-11.217-0.1951 11.096 10.018 0 0 0-5.6716 8.7398h11.096z" fill="none" stroke="#000" style="paint-order:stroke markers fill"/>
    <path d="m267.92 1410.8a2.0108 1.5737 0 0 1 2.0237-1.5239 2.0108 1.5737 0 0 1 1.9966 1.5457 2.0108 1.5737 0 0 1-1.9251 1.6002 2.0108 1.5737 0 0 1-2.0916-1.4666" stroke="#0c0c0c" style="paint-order:stroke markers fill"/>
    <path d="m270.21 1410.7 4.3594-4.7745" stroke="#0c0c0c" style="paint-order:stroke markers fill"/>
   </g>
   <g fill="none" stroke-width="1.5562">
    <path d="m265.63 1439.3-0.16911 12.874h9.3271" stroke="#0c0c0c" style="paint-order:stroke markers fill"/>
    <path d="m275.03 1452.2-0.0423-13.352" stroke="#0c0c0c" style="paint-order:stroke markers fill"/>
    <path d="m270.07 1395.9c-0.19273 0-0.386-4e-4 -0.57812 0.01-9.089 0.3727-17.926 8.5734-15.295 20.295 1.6093 7.1702 3.8751 15.631 6.1484 19.961 1.3533 2.5773 6.4541 2.6767 9.5449 2.6289v0.084c2.8945 0.053 7.8686 0 9.168-2.6289 2.1434-4.3323 4.2796-12.798 5.7969-19.973 2.4804-11.728-5.8503-19.934-14.42-20.307-0.12141-0.01-0.24333-0.01-0.36524-0.01z" stroke="#000" style="paint-order:stroke markers fill"/>
   </g>
   <text x="264.75906" y="1431.6761" fill="#0c0c0c" font-size="17.2px" stroke="#000000" stroke-width=".8239" style="paint-order:stroke markers fill" xml:space="preserve"><tspan x="264.75906" y="1431.6761" font-family="Verdana" stroke="#000000" stroke-width=".8239">P</tspan></text>
  </g>
 </g>
</svg>
