<?xml version="1.0" encoding="UTF-8"?>
<!-- Created with Inkscape (http://www.inkscape.org/) -->
<svg width="82.32" height="79.36" version="1.1" viewBox="0 0 82.32 79.36" xmlns="http://www.w3.org/2000/svg" xmlnsSvg="http://www.w3.org/2000/svg">
 <g transform="translate(4.2286 11.407)" stroke="#000">
  <g transform="matrix(1.3288 0 0 1.3288 4.636 3.0805)" stroke="#fff" stroke-linecap="round" stroke-miterlimit="21">
   <rect x="8.5858" y="-4.013" width="34.88" height="8.4048" fill="none" stroke-width="1.7527" style="paint-order:stroke markers fill"/>
   <g fill="#fff">
    <ellipse cx="13.046" cy="27.739" rx="1.9101" ry="1.8694" stroke-width="1.7527" style="paint-order:stroke markers fill"/>
    <ellipse cx="38.687" cy="27.839" rx="1.9101" ry="1.8694" stroke-width="1.7527" style="paint-order:stroke markers fill"/>
    <ellipse cx="8.1209" cy="26.674" rx=".47156" ry=".46152" stroke-width=".89023" style="paint-order:stroke markers fill"/>
    <ellipse cx="43.914" cy="26.435" rx=".47156" ry=".46152" stroke-width=".89023" style="paint-order:stroke markers fill"/>
    <rect x="21.91" y="27.182" width="7.0423" height="1.0697" ry=".5348" stroke-width="1.2341" style="paint-order:stroke markers fill"/>
   </g>
   <g fill="none">
    <rect x="7.5784" y="7.1292" width="36.809" height="15.447" stroke-width="1.7527" style="paint-order:stroke markers fill"/>
    <rect x="2.2254" y="33.443" width="47.319" height="7.7112" ry="1.7937" stroke-width="1.7527" style="paint-order:stroke markers fill"/>
    <path d="m14.965 41.128h-7.9287a4.0493 3.58 0 0 0-0.098758 0.66678 4.0493 3.58 0 0 0 4.0493 3.5799 4.0493 3.58 0 0 0 4.0493-3.5799 4.0493 3.58 0 0 0-0.07106-0.66678z" stroke-width="1.6659" style="paint-order:stroke markers fill"/>
    <path d="m45.338 41.099h-7.5046a4.0774 3.2371 0 0 0-0.34391 1.231 4.0774 3.2371 0 0 0 4.0773 3.2371 4.0774 3.2371 0 0 0 4.0773-3.2371 4.0774 3.2371 0 0 0-0.30615-1.231z" stroke-width="1.6791" style="paint-order:stroke markers fill"/>
   </g>
   <g fill="#fff" stroke-width="1.7527">
    <rect x="-1.613" y="14.01" width="2.0029" height="5.7098" ry="0" style="paint-order:stroke markers fill"/>
    <rect x="51.795" y="13.909" width="2.0029" height="5.7098" ry="0" style="paint-order:stroke markers fill"/>
    <rect transform="rotate(89.715)" x="16.523" y="-52.562" width="1.3878" height="3.9561" ry="0" style="paint-order:stroke markers fill"/>
    <rect transform="rotate(89.715)" x="16.614" y="-3.4653" width="1.3878" height="3.9561" ry="0" style="paint-order:stroke markers fill"/>
   </g>
   <path d="m8.5322-6.6218c-2.7705 0-5.0016 2.3072-5.0016 5.1723v35.084h44.722v-35.084c0-2.8651-2.2311-5.1723-5.0016-5.1723z" fill="none" stroke-width="1.777" style="paint-order:stroke markers fill"/>
  </g>
 </g>
</svg>
